<svg width="390" height="386" viewBox="0 0 390 386" fill="none" xmlns="http://www.w3.org/2000/svg">
<path d="M255 183.5L36 183.5L36 177.5L30 177.5L30 152.3L36 152.3L36 146.3L62.4 146.3L62.4 140.3L53.4 140.3L53.4 134.3L44.4 134.3L44.4 125.3L38.4 125.3L38.4 116.3L32.4 116.3L32.4 104.3L26.4 104.3L26.4 61.1L32.4 61.1L32.4 49.1L38.4 49.1L38.4 37.1L44.4 37.1L44.4 31.1L50.4 31.1L50.4 25.1L62.4 25.1L62.4 19.1L74.4 19.1L74.4 13.1L114.6 13.1L114.6 19.1L132.6 19.1L132.6 25.1L144.6 25.1L144.6 31.1L153.6 31.1L153.6 37.1L159.6 37.1L159.6 46.1L165.6 46.1L165.6 55.1L171.6 55.1L171.6 67.1L177.6 67.1L177.6 85.1L183.6 85.1L183.6 128.3L177.6 128.3L177.6 134.3L155.4 134.3L155.4 128.3L149.4 128.3L149.4 93.8L143.4 93.8L143.4 81.8L137.4 81.8L137.4 69.8L128.4 69.8L128.4 60.8L116.4 60.8L116.4 51.8L81.6 51.8L81.6 57.8L69.6 57.8L69.6 69.8L60.6 69.8L60.6 107.3L66.6 107.3L66.6 116.3L72.6 116.3L72.6 122.3L78.6 122.3L78.6 128.3L87.6 128.3L87.6 134.3L99.6 134.3L99.6 140.3L114 140.3L114 146.3L255 146.3L255 152.3L261 152.3L261 177.5L255 177.5L255 183.5Z" fill="#C8FF64"/>
<path d="M315 202.5L96 202.5L96 208.5L90 208.5L90 233.7L96 233.7L96 239.7L122.4 239.7L122.4 245.7L113.4 245.7L113.4 251.7L104.4 251.7L104.4 260.7L98.4 260.7L98.4 269.7L92.4 269.7L92.4 281.7L86.4 281.7L86.4 324.9L92.4 324.9L92.4 336.9L98.4 336.9L98.4 348.9L104.4 348.9L104.4 354.9L110.4 354.9L110.4 360.9L122.4 360.9L122.4 366.9L134.4 366.9L134.4 372.9L174.6 372.9L174.6 366.9L192.6 366.9L192.6 360.9L204.6 360.9L204.6 354.9L213.6 354.9L213.6 348.9L219.6 348.9L219.6 339.9L225.6 339.9L225.6 330.9L231.6 330.9L231.6 318.9L237.6 318.9L237.6 300.9L243.6 300.9L243.6 257.7L237.6 257.7L237.6 251.7L215.4 251.7L215.4 257.7L209.4 257.7L209.4 292.2L203.4 292.2L203.4 304.2L197.4 304.2L197.4 316.2L188.4 316.2L188.4 325.2L176.4 325.2L176.4 334.2L141.6 334.2L141.6 328.2L129.6 328.2L129.6 316.2L120.6 316.2L120.6 278.7L126.6 278.7L126.6 269.7L132.6 269.7L132.6 263.7L138.6 263.7L138.6 257.7L147.6 257.7L147.6 251.7L159.6 251.7L159.6 245.7L174 245.7L174 239.7L315 239.7L315 233.7L321 233.7L321 208.5L315 208.5L315 202.5Z" fill="#C8FF64"/>
</svg>
