<svg width="48" height="48" viewBox="0 0 48 48" fill="none" xmlns="http://www.w3.org/2000/svg">
<path d="M38 23H39C40.87 23 41.804 23 42.5 23.402C42.956 23.6653 43.3347 24.044 43.598 24.5C44 25.196 44 26.13 44 28C44 29.87 44 30.804 43.598 31.5C43.3347 31.956 42.956 32.3347 42.5 32.598C41.804 33 40.87 33 39 33H38M10 23H9C7.13 23 6.196 23 5.5 23.402C5.04398 23.6653 4.66529 24.044 4.402 24.5C4 25.196 4 26.13 4 28C4 29.87 4 30.804 4.402 31.5C4.66529 31.956 5.04398 32.3347 5.5 32.598C6.196 33 7.13 33 9 33H10M24 10C24.7956 10 25.5587 9.68393 26.1213 9.12132C26.6839 8.55871 27 7.79565 27 7C27 6.20435 26.6839 5.44129 26.1213 4.87868C25.5587 4.31607 24.7956 4 24 4C23.2044 4 22.4413 4.31607 21.8787 4.87868C21.3161 5.44129 21 6.20435 21 7C21 7.79565 21.3161 8.55871 21.8787 9.12132C22.4413 9.68393 23.2044 10 24 10ZM24 10V16M18 24V26M30 24V26M22 16H26C31.656 16 34.486 16 36.242 17.758C38 19.514 38 22.344 38 28C38 33.656 38 36.486 36.242 38.242C34.486 40 31.656 40 26 40H24C24 40 23 44 16 44C16 44 18 41.982 18 39.966C14.894 39.872 13.04 39.526 11.758 38.242C10 36.486 10 33.656 10 28C10 22.344 10 19.514 11.758 17.758C13.514 16 16.344 16 22 16Z" stroke="white" stroke-width="3" stroke-linecap="round" stroke-linejoin="round"/>
<path d="M20 33C20 33 21.334 34 24 34C26.666 34 28 33 28 33" stroke="white" stroke-width="3" stroke-linecap="round" stroke-linejoin="round"/>
</svg>
