<svg  viewBox="0 0 20 17" fill="white" xmlns="http://www.w3.org/2000/svg">
<path d="M10.8342 15.5003V13.8337H14.1675V15.5003C14.1675 15.7364 14.0875 15.9345 13.9275 16.0945C13.7675 16.2545 13.5698 16.3342 13.3342 16.3337H11.6675C11.4314 16.3337 11.2336 16.2537 11.0742 16.0937C10.9148 15.9337 10.8348 15.7359 10.8342 15.5003ZM5.8342 15.5003V13.0003H1.5217C1.18837 13.0003 0.945312 12.8545 0.792535 12.5628C0.639757 12.2712 0.653646 11.9864 0.834201 11.7087L3.2092 8.00033C2.88976 8.00033 2.65031 7.85811 2.49087 7.57367C2.33142 7.28922 2.34865 7.00783 2.54253 6.7295L6.81337 0.646166C6.8967 0.535055 7.00087 0.448388 7.12587 0.386166C7.25087 0.323944 7.37587 0.292555 7.50087 0.291999C7.62587 0.291444 7.75087 0.322833 7.87587 0.386166C8.00087 0.449499 8.10503 0.536166 8.18837 0.646166L12.4592 6.7295C12.6536 7.00728 12.6711 7.28867 12.5117 7.57367C12.3523 7.85867 12.1125 8.00089 11.7925 8.00033L14.1884 11.7087C14.3689 11.9864 14.3828 12.2712 14.23 12.5628C14.0773 12.8545 13.8342 13.0003 13.5009 13.0003H9.16753V15.5003C9.16753 15.7364 9.08753 15.9345 8.92753 16.0945C8.76753 16.2545 8.56976 16.3342 8.3342 16.3337H6.66753C6.43142 16.3337 6.23365 16.2537 6.0742 16.0937C5.91476 15.9337 5.83476 15.7359 5.8342 15.5003ZM16.0425 13.0003L13.3342 8.83367C13.6675 8.83367 13.9142 8.6845 14.0742 8.38617C14.2342 8.08783 14.2167 7.7995 14.0217 7.52117L10.5217 2.52117L11.8134 0.646166C11.8967 0.535055 12.0009 0.448388 12.1259 0.386166C12.2509 0.323944 12.3759 0.292555 12.5009 0.291999C12.6259 0.291444 12.7509 0.322833 12.8759 0.386166C13.0009 0.449499 13.105 0.536166 13.1884 0.646166L17.4592 6.7295C17.6536 7.00728 17.6711 7.28867 17.5117 7.57367C17.3523 7.85867 17.1125 8.00089 16.7925 8.00033L19.1675 11.7087C19.3481 11.9864 19.362 12.2712 19.2092 12.5628C19.0564 12.8545 18.8134 13.0003 18.48 13.0003H16.0425Z"/>
</svg>
