<svg  viewBox="0 0 16 17" fill="white" xmlns="http://www.w3.org/2000/svg">
<path d="M9.20833 1.1112C8.87019 0.82622 8.44221 0.669922 8 0.669922C7.55779 0.669922 7.12981 0.82622 6.79167 1.1112L1.16667 5.85703C0.957883 6.033 0.790049 6.25244 0.674898 6.50001C0.559747 6.74759 0.500056 7.01732 0.5 7.29037V15.0445C0.5 15.8495 1.15333 16.5029 1.95833 16.5029H4.45833C4.84511 16.5029 5.21604 16.3492 5.48953 16.0757C5.76302 15.8022 5.91667 15.4313 5.91667 15.0445V11.7087C5.91667 11.142 6.36833 10.682 6.93083 10.667H9.06917C9.34064 10.6742 9.59858 10.7871 9.78802 10.9817C9.97746 11.1763 10.0834 11.4371 10.0833 11.7087V15.0445C10.0833 15.8495 10.7367 16.5029 11.5417 16.5029H14.0417C14.4284 16.5029 14.7994 16.3492 15.0729 16.0757C15.3464 15.8022 15.5 15.4313 15.5 15.0445V7.28953C15.4999 7.01649 15.4403 6.74675 15.3251 6.49918C15.21 6.2516 15.0421 6.03216 14.8333 5.8562L9.20833 1.1112Z" />
</svg>
