<svg width="130" height="130" viewBox="0 0 130 130" fill="none" xmlns="http://www.w3.org/2000/svg">
<path d="M70.5 85H68.5V12H70.5V10H78.9V12H80.9V20.8H82.9V17.8H84.9V14.8H87.9V12.8H90.9V10.8H94.9V8.79999H109.3V10.8H113.3V12.8H117.3V14.8H119.3V16.8H121.3V20.8H123.3V24.8H125.3V38.2H123.3V44.2H121.3V48.2H119.3V51.2H117.3V53.2H114.3V55.2H111.3V57.2H107.3V59.2H101.3V61.2H86.9V59.2H84.9V51.8H86.9V49.8H98.4V47.8H102.4V45.8H106.4V42.8H109.4V38.8H112.4V27.2H110.4V23.2H106.4V20.2H93.9V22.2H90.9V24.2H88.9V26.2H86.9V29.2H84.9V33.2H82.9V38H80.9V85H78.9V87H70.5V85Z" fill="#B2F142"/>
<path d="M59.5 105H61.5V32H59.5V30H51.1V32H49.1V40.8H47.1V37.8H45.1V34.8H42.1V32.8H39.1V30.8H35.1V28.8H20.7V30.8H16.7V32.8H12.7V34.8H10.7V36.8H8.7V40.8H6.7V44.8H4.69999V58.2H6.7V64.2H8.7V68.2H10.7V71.2H12.7V73.2H15.7V75.2H18.7V77.2H22.7V79.2H28.7V81.2H43.1V79.2H45.1V71.8H43.1V69.8H31.6V67.8H27.6V65.8H23.6V62.8H20.6V58.8H17.6V47.2H19.6V43.2H23.6V40.2H36.1V42.2H39.1V44.2H41.1V46.2H43.1V49.2H45.1V53.2H47.1V58H49.1V105H51.1V107H59.5V105Z" fill="#B2F142"/>
</svg>
